<svg id="Layer_1" data-name="Layer 1" xmlns="http://www.w3.org/2000/svg" viewBox="0 0 409.6 409.6"><title>premium</title><path d="M199.8,284.6c112.8,0,204.8-92,204.8-204.8S312.6-125,199.8-125-5-33-5,79.8,87,284.6,199.8,284.6h0Zm0,0" transform="translate(5 125)" fill="#ff757c"/><path d="M199.8-22.89A181.25,181.25,0,0,1,381.05,158.37a184.18,184.18,0,0,1-.94,18.61,204.86,204.86,0,0,1-360.62,0,183.23,183.23,0,0,1-.95-18.62A181.26,181.26,0,0,1,199.8-22.89h0Zm0,0" transform="translate(5 125)" fill="#0e7886"/><path d="M313,16.85A181.12,181.12,0,0,1,378.34,127a15.72,15.72,0,0,1-1.67-3.57,35.88,35.88,0,0,1-7.83,1.95l-0.18.25c-1.66,2.37.08,1.37-2.84,3.84-3.48,2.93-5.74,6.92-9.63,9.29-0.47,4.14.34,5.07-.7,10-0.41,1.82-2.44,6.69-4.82,6.33-0.75-.14-3.95-8-4.7-10.23-1.28-3.72-2.73-6.46-3.65-10.73-0.52-2.28-.87-6.65-1.39-8.18-2.49.37-2.38,2-4.76,0.28-1.68-1.21-.93-2-1.86-3.76-2-1.86-4-3.72-6-5.57-1.57-.51-7.6.37-10.16,0.09-4.58-.42-5-0.14-7.71-3.81-4.82.23-4.41,2-9.12-2-3.07-2.6-2.49-6.79-7-4.41-0.17,3.81,1.68,4.65,3.37,6.41,1.21,1.35,2.73,2.27,3.36,4.09,0.06,0.05.35,1.76,0.41,2,4.35,0.28,5.39-1.81,7.77-3.57,2.32,2.18.06,2.56,3.43,4.27,2.67,1.35,2.15.56,3.88,2.74,0.87,2.93-6,10.88-8.24,12.32-1.74,1.12-2.66.46-4.23,1.76-2.32,2,.29,1.68-3.77,3.16-4.35,1.58-8.65,4.93-13.23,5.21-1-2.7-2-5.43-3-8.17-2.91-9.34-2.79-5.72-5.75-10.55-1.39-2.09-.81-3.44-1.74-5.3-0.64-1.39-1.62-2-2.5-3.71-1.33-2.65-2.9-6.79-6-6.37-0.64,2.09,2.84,9.15,3.71,10.87s2.27,2.46,2.67,4.93c0.58,3.39-.12,3,1.74,5.24,3.89,4.69-.17,3.86,5.86,8.45,4.52,3.45,3.37,4.47,5.28,9.07,3,0.83,11.78-3.11,13.29-2,1.8,3.2-2.09,8.31-3.07,11.11-3.25,9.34-8.94,9.2-13.29,16.36-2.37,3.86-3.48,4.37-5.69,9-2.5,5.25,5,19.79.53,25.89-1,1.39-4.18,2.23-8.18,6.46-4.24,4.59.12,3.81-1.51,11.47-1.27,1.77-2.84,1.86-4.41,3.12-0.58,1.81-.11,3.24-1.11,5.48-1,2.69-1.22,1.25-2.73,3.44-1.1,1.71-1,2.41-2.26,4a16.12,16.12,0,0,1-2.72,2.79c-5.05,4.65-15.9,4.79-16.83,4.14-2.56-2.18-.82-2.74-1.45-5.8a25.73,25.73,0,0,0-3.25-7l-0.12-.22a15.75,15.75,0,0,1-1.39-2.93c-2.09-6.6-1.34-11.61-5-18.31-4.58-8.64,2.55-13.15,2.26-18-0.12-1.3-.58-2.09-0.7-3.11-0.87-5.39-1.39-10.22-5-14.45-3.95-4.59-3.43-3-2.15-10.54,1.62-8.69-2.09-6.46-7.31-6.69-2.56-7.89-7.55-4-12.54-1.72-3.14,1.44-4.3-.42-7.84.09-7.89,1.07-1.68,4.46-12.24-3.9-4.41-3.49-1.45-1.72-4.06-6.09-0.87-1.58-3.54-3.67-4.76-5.25-4-5,.76-10.08.06-15.84-1.22-10.69-3-1.39,3-14.31,3.14-6.88,7.89-6.92,9.11-10,1-2.74.35-4.69,2.32-7.2,1.74-2,4.24-1.62,5.23-4.83,1.39-3.95-1.28-4.46-4.18-4.55-1.22-4.14-1.22-3.12-.29-6.93,0.53-2.14.06-3.16,0.53-5.3,1.16-5.34,10.27,0,12.88-2.23a6.2,6.2,0,0,0,0-6.69c-1.45-2.18-3.37-1.91-4.35-4,2.21-1.49.58-.19,2.5-0.6,2.26-.51,2-1.16,4.64-1.67,2.38-.47,3.9-2.65,6.21-4.14,3.3-2.14,1.74-4,5.74-4.69,6.44-1.12,2.26-.93,3-6.93,1-.37,1.91-0.8,2.84-1.21,2,2.65-.52,1.58,1.92,3.34,0.64-.37,1.39-0.74,2.09-1.11-0.35-2.89-1.68-2.33-2.56-5.9-3.19.51-4.35,3.2-6.91,2.23s-2.61-4.51-2.49-7.48c0.93-2.23,5.57-3.44,7.36-4,2.91-1,2.5-2.93,5.16-5.58,3.48-3.48.93,0,2.61-4.46,3.83-.14,2-0.28,4.29-1.44l0.12,0,0.23-.09c1.34-.61,3.08-0.74,4.82-1.35,6.38-2.13,9-1.07,13.63.83,3.6,1.49,14.45,1.54,15.27,6.09-2.61,2.73-5.11.74-8.88,1,0.69,3.53,1,3.53,4.18,4.5,0.53-1.67-.23-1,0.64-2.09,1,0.23,2.09.42,3.13,0.61,1.05-3.58,2.27-3.07,5.81-3.49-0.58-2.46-1.22-1.77.11-3.71,3.66,0.38.7,0.05,2.5,3,2.56-.33,5.05-3.16,8.59-3.53,2.21-.23,2.09.61,5.22,0.28,2.56-.28,2.43-1.21,5-0.14,0.93-1.72,0-1.68,2.26-2.09,3.48-.61,6.5,1.53,9.86,2-2.49-3.06-4.87-2.46-1.8-7.57,3.89-.79,4.23-0.23,5.92,2.7A22.5,22.5,0,0,0,313,16.86h0ZM117.85,267.53q-9.06-4-17.64-8.75A7.35,7.35,0,0,1,100,258c-0.87-5.16,1.34-5.72-1.11-14.32-1.6-5.68-1-19.16-2.65-26.06a11.12,11.12,0,0,0-1-2.75c-1.57-2.6-5.4-3.8-8.47-5.9a0.51,0.51,0,0,1-.35-0.19c-4.24-3-8.25-14.64-11.61-19-1.57-2.09-2.55-1.17-3.25-4.46-0.75-3,.41-2.51,1.4-5-5.17-9.48,6.67-9.34,4.24-20.72-0.53-2.09-2-5-3.31-5.95-2.44,1.07-1.28,1.67-2.55,3.71-2-1.12-3.95-2.23-5.86-3.34-6-5.76-2.79-1.59-4.46-5.35-3.6-7.9-7-3.48-11.32-7.38-1.92-1.63-2.26-4.19-5.45-3.72-4.82.65-2.15,1.4-7.14-.93-4.24-2-8.65-4.32-11.61-7-0.12-4.18,1.39-4.37-1.22-8.27a21.7,21.7,0,0,0-1.51-2A181.07,181.07,0,0,1,77.61,24.48c2.11,0.74,4.89.25,7,.17,0.75-1.39,1.21-2.61,2.55-3.12a5.36,5.36,0,0,1,2-.18c0.11,0.69.29,1.39,0.47,2.09a1.44,1.44,0,0,1,.06.42,0.63,0.63,0,0,1,.17.41c3.66-2.13.58-2.18,2.55-6-3.07-.6-2.67-0.24-4.59-2.19C89.7,14,93.3,13.3,96,13.49c-0.18,1.86-1,1.82-.34,3.39,2.09-1.3,3.54-4.78,6.9-4.14,0.64,0.46,1.4.88,2.09,1.3-1.75,1.62-4.35,1.72-6.61,2.65-1,10.09,3.19,1.63,1.79,8.55a7.68,7.68,0,0,0,5.86-3.86c-0.93-1.21-2.27-1.21-3-2.65a6.66,6.66,0,0,1,3.6-4.11,9.9,9.9,0,0,1,4.24-.87c18.45,0.14,9.69,1,15.38,3.58,1.27,0.55,3.54.84,4.29,1.95,1.16,1.77.06,3.44,1.91,4.84,1.63,1.21,1.86-.05,4,2.65A4,4,0,0,1,132.25,30c-3.14,0-1.28-2.1-4.64-1.77,0.06,3.16,3.19,4.37.28,6.09-2.55,1.54-.93-0.55-2.84.52-0.06,0-.24.14-0.29,0.19a1.78,1.78,0,0,0-.29.32c-0.34.38-.64,0.7-0.92,1-4.64-1.26-3.77-.7-6.56-3.76-1-1.16-1.21-1.44-3.07-1.3-1.16,0-2.67.55-3.77-.47,2.26-2.84,3.37-.09,6.67-1.77a43,43,0,0,0,4.82-3.77c-1-2.23-.12-0.38-1.56-1.82-3.25-3.29-4.19-2.46-8.59-2.46-2.07,2.38-3.61,5.32-5.86,6.6a5.38,5.38,0,0,1-5.11,0c1,4,3.54.93,3.77,5.76-1.68-.32-2.55-1.16-4.29-0.56-3.72,1.39-.41,1.25-0.12,2,0,0,1.74.23,0,.88-1.92.7-.29-0.37-4-2.56,0.52-.93,1-1.91,1.57-2.88A76.38,76.38,0,0,0,87.1,34.41a46.72,46.72,0,0,0-10,6.37c-0.06,3.49.58,1.16,0.93,5.3C83.39,46.4,81.65,48,87,49.56c1,0.29,2.38.56,4,.84,0,2.61-2.32,4.55-.7,7.25,3.77,2.64,3.89-2.51,4.82-5.81,12.77-2.67,6.62-6.42,9.92-13.45A15.61,15.61,0,0,1,107.3,35c1,0,5,.47,5.86.65,2.9,0.51,1.34,1.21,4.47,2.6-0.06,2.51-1.33,5.76,2.38,5.16,2.85-.51,2.21-2.74,5.69-3.3,1.56,3.67,1.16,5.25,1.86,9.67,8.36,3.25,4.64,5.9,3,12,1.05,0.51,2.15,1,3.25,1.44-0.05,1.77-.12,3.49-0.17,5.21-0.17,0-8.94-1.91-9.52-2.09,1.34-3.82,3.77-3.86,5.34-7.76-3.13.56-2.9,1.53-5.16,2.23-2,.61-3.6.18-5.74,0.46-0.75,2.5-.06-2.19.18,1,0.11,1.21.7,0.05-.12,1.35-2.91-1.35-1.91-4.51-7.31-1.58,1.22,0.56,2.43,1.07,3.71,1.58-0.17,3.57-.46.88-1.22,3.25-1.86,6.09,5,2.32,6.85,2-0.46,3.21-2.44,3.21-5.22,4.09-3.07.93-4,2.19-6.44,2.75,0-3.82-.58-0.61,1.1-3.25-2.44.23-4.24,1.34-6.56,2.32l-0.23.09c-3,1.21-3.43,1.39-3.78,5.21C97,80.88,94,81.77,92.2,83.63l-5.34,5.1c-0.17.14-.29,0.28-0.4,0.38,0.64,4.79,0,4.88-2.91,6.74-2.44,1.57-3.25,1.53-5.51,3.53-7.25,6.51-3.77,3.48-3.37,14.68-1.51-.46-3-1-4.35-1.48-1.1-7.44.4-5-5.57-6.69-6.44-1.86-5.58,1.3-8.24,1.86-3,.65-4.41-2.7-8.71.09-2.37,1.63-4.64,2.69-5.22,5.57-0.7,3.49-2.26,6-2,9.9,0.41,10.46,9.93,11.06,12.36,6.18,1.62-3.25,1.22-5,6.5-4.18,0.52,2.79-.29,4.83-1,7-0.46,1.25-1.74,3.53-1.1,5.25,3.77,1.53,3.89-1.35,8.88,1.62,0.35,5-2.26,10.55,1.57,13.43,3,2.18,3.13.23,5.74-.23,2.9-.51,2.38,1.3,5.05,1.72,1.51-1.86.87-.7,1.86-3,1.74-3.94,2.2-2.09,6.32-4.5,0.4-.23.75-0.47,1.16-0.75,0.46,1,1,1.91,1.45,2.84,3-3.58,3.37-.09,6.85.88a13.52,13.52,0,0,0,3.39.57c2.53,0,2.79-1.19,6.24,0a11.22,11.22,0,0,0,1.4.47,0.29,0.29,0,0,1,.23.19l0.29,0.23a13.56,13.56,0,0,1,1.1,2l7.08,6.79c4.58,1.81,4.58-1.58,9.81,3.48,2.21,2.09,1.21,2.05,2.43,4.74,0.18,0.42.53,0.84,0.75,1.35,0.47,1.25,1,2.46,1.51,3.67,2.38,3.11,5.63,1.16,8.93,4.37,1.92,1.86.47,1.3,4.7,2,6.56,1.07,4,.46,9,4.23,1.91,1.39,2.38.6,4.18,1.81,2.5,3.48,1.86,7.25-.23,10.32-6.44,9.38-4.24,7.85-4.53,15.29-0.23,4.27-1.45,13.1-5.46,14.17-14.56,4.09-6.09,6.93-9.92,14.13-1.1,2.05-1.92,2.56-2.61,4.19-2.9,6.78-.87,9.06-9.46,7.53,0.82,1.44.29,0.46,1.1,1.76,2.56,3.95,3,6.93-2.26,7.9-4.36.84-2.5,0-2.9,4.83-1.68.7-2.44,0-3.54,1.11l0.41,0.76h0ZM79.6,22.71c1.12-.15,1.12-0.63,4.06-1.35A2.69,2.69,0,0,0,83,20l-0.09-.19c-1.12.95-2.23,1.91-3.33,2.88h0ZM234.72,76.6l-0.12-.08a9.82,9.82,0,0,1-1.16-.88c-2.55-2.28-3.08-4.32-5.92-3.81-0.06,2.14.24,2.23,1.27,3.63,3.95,4.92,2.73,3.25,5.8,5.06l0.12,0.07c0.73,0.42,1.57,1,2.73,1.84-3.95,3.48-.29,3.85-2.73,5l-0.12.05a5.54,5.54,0,0,0-.63.28c-0.82-2,1-1.07-1.11-4-1.16-1.53-2.26-2-4.06-2.84-4.53-2.14-3.95-3.81-6.73-6.6-3.14.1-2.44,1.07-4.64,2.19-2.67,1.3-2.26-.23-5.4,0-2.56,4.51,1.1.75-3.54,4.46-5.57,4.32-1,8.83-9.92,10.18a5.74,5.74,0,0,0-1.51.23c-1.69.6-.7,0.09-1.69,1.07,0.76,1.77-.29,1.48,2.73,1.91,5.51,0.74,6.21-2.65,10.22-3.49a128.84,128.84,0,0,1,15.2-.7c2.67,3,.47,5.07.47,7.58,2.91,1.53,7,1.91,8.71,3.48,1.91,1.81,1,1.53,1.91,1.86l0.12,0c0.35,0.1.86,0.28,1.74,0.62,2.32,0.78,2.2,1.25,4.69,1.44,2.27-7.58-.06-6.79,10.86-3.3,11.37,3.73,6.27.33,11.08,0.84,2.38,0.23,1.75,1,5.05.55,0.64-1.3,5.34-13.1-.76-11.61-1.8.46-.57,1.11-3.13,0.46s-0.11-1.21-3.07-.79-6.38,3-8.65-5.8c-0.87-3.16-2.44-5.9-6-1.12,0.93,1.63,1.57,1.77,2.61,3.35a22.11,22.11,0,0,1-1.62,2c-2,1.95.82,1-2.38,1.44-1.74-1.3-1.39-3-3.08-5.3-3-4.33-1-2.32-2.55-6.46-1.19-1-3.16-1.82-4.77-2.85h0Zm62,125.11c-2.55,1.3-2.9,4.28-4.82,5.95-2.09,1.91-4.88,1-5.69,4.55-1,4.41,1.74,3.07-1.33,8.83-1.1,2.13-1.16,7.48.52,9.06,5,4.88,7.78-7.43,8.94-11.29,0.87-2.74,1.68-5.85,2.61-8.41,0.93-2.74,2.26-5.15-.23-8.69h0ZM288.35,72.05c0.41,5.68,3.77,7.85,6.15,10.46-0.29,2.7-.93,2-0.87,5.76,2.84,2.05,4.93,3.3,8.65,2.28,0.52-4.56-.93-4.32-2.32-7.44a4.8,4.8,0,0,1,1-.93c1-1.39.52,0.55,1-1.82-2.73-.88-7.14-3.67-7.48-7.34,1.33-1.07.93-.42,1.91-1.07,2.15-1.4.52,0.74,1.8-1.63-1.1-2.14-2.32-2.51-5-1.44a34.82,34.82,0,0,0-4.88,3.16h0Zm-23.74,1.49c-1.8-2.5-1.68-3.77-5.16-3.85a17.58,17.58,0,0,0-3.77,6c-1.16,3.44-.35,1.07-0.23,4.79a1.25,1.25,0,0,0,0,.46c-0.06,2.23-.58-0.42-0.23,1.63,2.73-.56.64-0.52,2.68-1.16s7.77-2.42,9.46-2c4,0.93,7.37,4.09,11.9.93-0.24-4-5.11-5.57-8.48-7.34,0.18-3.71,1.16-.79.93-4.37a5.76,5.76,0,0,0-3,.23c-2.61,1.16-1.16,1.49-1.16,1.91,0.11,2,2.61-.42-0.05,2a5.28,5.28,0,0,1-2.91.74h0ZM196.82,45.38c-0.11,6.51,2.15,4.32,4.3,7.53-1,2.74-1.16.61-2.26,3.44-1,2.37.23,0.24-.41,4.37,1.68,0.09,4.18-.51,6.38-0.7,3.14-.28,3.07-0.56,4.18-3.77-1.74-2.14-3.48-4.27-5.28-6.41-2.27-3.45,0-1.07-.69-4-0.52-1-1-2-1.45-3.07-3,1-2.73.75-4.77,2.56h0Zm0,0" transform="translate(5 125)" fill="#15bdb1"/><path d="M311.53,33.87l-1.76-1.75-7.24-7.24-1.75-1.75c-5.71,2.17-12.86,11.52-15.68,17.43L286,41.43l7.24,7.23,0.88,0.88c5.9-2.82,15.26-10,17.43-15.67h0Zm0,0" transform="translate(5 125)" fill="#fbb429"/><path d="M311.53,33.87l-1.76-1.75-7.24-7.24-1.75-1.75a15.75,15.75,0,0,0-4.11,2.52L309,38a15.71,15.71,0,0,0,2.52-4.11h0Zm0,0" transform="translate(5 125)" fill="#fff"/><path d="M323.64,68.27L312.9,57.53C307.19,59.69,300,69.05,297.22,75l9,9c5.91-2.82,15.27-10,17.43-15.68h0Zm0,0" transform="translate(5 125)" fill="#fbb429"/><path d="M323.64,68.27l-1.75-1.75-7.23-7.24-1.75-1.75a15.45,15.45,0,0,0-4.11,2.52l12.34,12.34a15.48,15.48,0,0,0,2.52-4.11h0Zm0,0" transform="translate(5 125)" fill="#fff"/><path d="M224.87-52.79L226.62-51l7.24,7.23L235.61-42c-2.17,5.71-11.52,12.86-17.43,15.68l-0.88-.88-7.23-7.24-0.88-.88c2.82-5.9,10-15.26,15.67-17.43h0Zm0,0" transform="translate(5 125)" fill="#fbb429"/><path d="M224.87-52.79L226.62-51l7.24,7.23L235.61-42a15.56,15.56,0,0,1-2.52,4.11L220.75-50.27a15.53,15.53,0,0,1,4.11-2.52h0Zm0,0" transform="translate(5 125)" fill="#fff"/><path d="M190.46-64.9l1.76,1.75,9,9C199-48.45,189.68-41.3,183.78-38.48l-9-9c2.82-5.9,10-15.27,15.68-17.43h0Zm0,0" transform="translate(5 125)" fill="#fbb429"/><path d="M190.46-64.9l1.76,1.75,7.24,7.23,1.75,1.75A15.56,15.56,0,0,1,198.69-50L186.35-62.38a15.33,15.33,0,0,1,4.11-2.52h0Zm0,0" transform="translate(5 125)" fill="#fff"/><path d="M164.77,98.2L186,128.38l6.77-8.19-12-31.73c1.51-1.3-1.33,1.28,4.87-4.3s33.44-30.62,58.12-50.69l71.07,100.46,6.48-6.48L282,2.24C298.06-11,310.48-21.55,313.83-25.37c10.23-11.69,19.49-27.29,12.18-41.9-14.62-7.31-30.21,1.95-41.9,12.18-3.83,3.35-14.38,15.77-27.62,31.82L131.29-62.55l-6.48,6.48L225.26,15c-20.05,24.68-45.1,51.92-50.68,58.12s-3,3.36-4.3,4.87L138.54,66l-8.18,6.77L160.54,94c-3.28,5.64-1.41,7.51,4.23,4.23h0Zm0,0" transform="translate(5 125)" fill="#fff"/><path d="M164.77,98.2L186,128.38l1.63-2L167,96.63l-2.28,1.57h0Zm0,0" transform="translate(5 125)" fill="#c8cacc"/><path d="M132.33,71.11l-2,1.63L160.53,94l1.57-2.28L132.32,71.11h0Zm0,0" transform="translate(5 125)" fill="#c8cacc"/><path d="M243.75,33.47l71.07,100.46,2.5-2.5L247.94,30Zm0,0" transform="translate(5 125)" fill="#c8cacc"/><path d="M127.3-58.57l-2.5,2.5L225.26,15l3.43-4.2L127.3-58.57h0Zm0,0" transform="translate(5 125)" fill="#c8cacc"/><path d="M319.91-61.17a12.34,12.34,0,0,0-5.11-3.05L313.63-61A17.57,17.57,0,0,1,317-58.3a17.7,17.7,0,0,1,2.66,3.41L323-56.06a12.41,12.41,0,0,0-3.05-5.11h0Zm-7.72-3.61a20,20,0,0,0-9.49,1.36,18.54,18.54,0,0,1,8.55,1.28Zm8.7,12.28A18.48,18.48,0,0,1,322.16-44a20,20,0,0,0,1.36-9.49Zm0,0" transform="translate(5 125)" fill="#15bdb1"/><path d="M142.88,117.88l0,0,0.43-.41,0.43-.41,0.43-.42,0.43-.42,0.43-.42,0.43-.42,0.44-.42,0.44-.42,0.88-.85,0.44-.43,0.45-.43,0.44-.43,0.45-.43,0.45-.44,0.45-.44,0.46-.44,0.45-.44,0.46-.44,0.46-.45,0.46-.44,0.92-.9,0.46-.46,0.47-.45,0.47-.46,0.47-.46,0.47-.46,0.95-.93L153.79,102l-0.47.46-0.47.46-0.47.46-0.47.46-0.47.45-0.46.46-0.46.45-0.46.45-0.46.45-0.46.44-0.46.45-0.91.88-0.46.44-0.45.43-0.45.44-0.45.43-0.45.43-0.44.43-0.44.43-0.45.42-0.44.43-0.44.42-0.44.42-0.43.42-0.44.42-0.43.42-1.29,1.24,0,0,2.61,2.71h0Zm211.26-1.56-0.45,1.17-0.45,1.15-0.44,1.14-0.45,1.12L351.9,122l-0.45,1.08L351,124.14l-0.45,1.05-0.45,1-0.45,1-0.45,1-0.46,1-0.45,1-0.45,1,0,0,3.39,1.66,0-.07,0.46-1,0.46-1,0.46-1,0.47-1,0.46-1,0.46-1.05,0.46-1.07,0.46-1.09,0.46-1.1,0.46-1.12,0.45-1.14,0.46-1.15,0.45-1.17,0.45-1.19-3.52-1.34h0ZM342.55,141l-0.24.38-0.46.76-0.46.75-0.46.73-0.47.72-0.47.7-0.46.69-0.46.68-0.46.66-0.47.65-0.46.64-0.47.62-0.46.61-0.47.6-0.47.59-0.47.58-0.47.56-0.47.55-0.47.53-0.47.53-0.47.51-0.47.5-0.47.49-0.47.48-0.08.08,2.64,2.69,0.11-.11,0.51-.51,0.5-.52,0.5-.53,0.5-.55,0.5-.56,0.5-.57,0.5-.58,0.5-.6,0.49-.61,0.5-.62,0.49-.63,0.49-.64,0.49-.66,0.49-.67,0.49-.68,0.49-.69,0.48-.71,0.49-.72,0.48-.73,0.48-.75,0.48-.76,0.48-.77,0.48-.79,0.23-.39L342.53,141h0ZM323,162.43h0l-0.48.29L322,163l-0.48.27-0.48.27-0.49.26-0.48.25-0.49.24-0.49.23-0.49.23-0.49.21-0.49.21-0.49.2-0.49.2-0.49.19-0.5.18-0.49.18-0.5.17-0.5.16-0.5.16-0.5.15-0.5.14-0.5.14-0.5.13-0.5.13-0.51.12-0.5.11-0.51.1-0.51.11-0.51.09-0.51.09-0.51.09-0.51.08-1,.15h0l0.48,3.75h0.06l0.55-.08,0.55-.08,0.55-.09,0.55-.09,1.1-.2,0.55-.11,0.55-.12,0.54-.12,0.55-.13,1.09-.28,0.55-.15,0.54-.16,0.54-.16,0.54-.17,0.54-.18,0.54-.19,0.54-.19,0.54-.2,0.54-.21,0.54-.21,0.53-.22,0.54-.23,0.54-.24,0.53-.25,0.53-.25,0.53-.26,0.53-.27,0.54-.28,0.53-.29,0.53-.3,0.53-.3,0.52-.32h0l-2-3.21h0Zm-28,6.48h-3.35l-0.55,0-0.55,0-0.56,0-0.56,0-0.55,0-0.56,0-0.56,0-0.57,0-0.57,0-0.56,0-1.13,0-0.57,0-0.57,0-0.57,0-0.57,0-0.57,0-0.58,0-0.57,0-0.58,0-0.58,0h-0.58l-0.58,0-0.59,0h-0.58l-0.59,0h-0.64l-0.07,3.77h1.2l0.58,0,1.15,0,0.58,0,0.57,0,0.57,0,0.57,0,0.57,0,0.57,0,0.57,0,0.57,0,1.14,0,0.57,0,0.57,0,0.57,0,1.13,0,0.57,0,0.57,0,0.56,0,0.57,0,0.57,0,0.57,0,0.56,0h0.57l1.13,0H295l0-3.77h0Zm-30.32-.34-0.49,0-0.61.05-0.62.06-0.61.06-0.62.06-0.62.07-0.62.07-0.62.08-0.62.08-0.62.09-0.63.1-1.26.2-0.63.12-0.63.12-0.63.12-0.64.13-0.63.14-0.64.14-0.64.15-0.64.16-0.64.16-0.64.17-0.64.18-0.64.19-0.64.19-0.65.2-0.64.21-0.65.21-0.65.22-0.09,0,1.28,3.55,0.06,0,0.61-.21,1.22-.4,0.61-.19,0.61-.18,0.61-.18,1.21-.33,0.6-.16,0.61-.15,0.6-.14,0.6-.13,0.61-.13,0.6-.12,0.6-.12,0.6-.11,0.6-.1,0.6-.1,0.6-.1,0.59-.09,1.2-.16,0.59-.07,0.6-.07,0.59-.07,0.59-.06,0.6-.06,0.59-.05,0.59,0,0.49,0-0.3-3.76h0Zm-29.52,8.58-0.5.28-0.67.38-0.67.39-0.67.4L232,179l-0.67.43-0.68.44-0.67.44-0.67.46-0.67.47-0.68.48-0.67.49-0.68.5-0.68.51-0.68.53-0.68.54-0.68.55-0.68.56-0.68.57-0.68.58-0.68.6-0.68.61-0.68.62-0.17.16,2.57,2.76,0.14-.13,0.66-.6,0.66-.59,0.65-.57,0.66-.56,0.65-.55,0.66-.53,0.64-.53,0.65-.51,0.65-.5,0.65-.49,0.65-.48,0.64-.46,0.65-.45,0.64-.45,0.64-.43,0.64-.43,0.64-.41,0.64-.4,0.63-.39,0.64-.38,0.63-.37,0.63-.36,0.5-.28-1.86-3.28h0Zm-23.57,19.6-0.07.07-0.69.79-0.68.78-0.68.77-0.68.76-0.67.75-0.67.74-0.67.73-0.67.72-0.67.71-0.66.7-0.66.69-0.66.68-0.66.68-0.66.66-0.66.65-0.66.65-0.66.64-0.66.63-0.65.62-0.13.11,2.57,2.76,0.14-.13,0.67-.64,0.68-.64,0.67-.65,0.67-.66,0.68-.67,0.68-.68,0.68-.69,0.68-.69,0.68-.71,0.68-.71,0.68-.73,0.68-.74,0.68-.74,0.69-.75,0.69-.76,0.69-.77,0.69-.78,0.69-.79,0.67-.77,0.07-.07-2.82-2.5h0Zm-21.32,20.82-0.45.36-0.63.49-0.63.48-0.63.48-0.63.47-0.62.46-0.62.45-0.62.44-0.62.44-0.62.43-0.62.42-0.62.41-0.61.41-0.61.4-0.61.39-0.61.38-0.61.38-0.6.37-0.61.35-0.6.35-0.6.34-0.6.34-0.59.33-0.59.33-0.59.31-0.29.15,1.73,3.35,0.32-.16,1.24-.67,0.62-.34,0.62-.35,0.63-.36,0.63-.37,0.63-.37,0.63-.38,0.63-.39,0.63-.4,0.64-.4,0.64-.41L185,226l0.64-.43,0.64-.44,0.64-.44,0.64-.45,0.65-.46,0.64-.47,0.64-.48,0.65-.48,0.65-.49,0.66-.5,0.65-.51,0.45-.36-2.33-3h0Zm-25.54,14.49-0.5.16-0.55.18-0.55.17-0.55.17-0.55.16-0.55.15-0.54.14-0.54.14-0.54.13-0.54.13-0.54.12-0.54.12-0.53.11-0.53.11-1.06.19-0.52.08-0.52.08-0.52.07-0.52.07-0.51.06-0.52.05-0.51.05-0.51,0-0.51,0-0.5,0-0.5,0-0.5,0-0.5,0h-2.64l-0.14,3.77h2.89l0.54,0,0.54,0,0.55,0,0.54,0,0.55,0,0.55,0,0.55-.05,1.11-.13,0.56-.07,0.56-.08,0.56-.08,0.56-.09,0.57-.1,0.57-.1,0.57-.11,0.57-.12,0.57-.12,0.57-.13,0.58-.14,0.58-.14,0.57-.15,0.58-.16,0.58-.16,0.59-.17,0.58-.17,0.59-.18,0.59-.19,0.5-.16-1.16-3.59h0Zm-28.58,1.17-0.18-.05-0.43-.12-0.42-.13-0.43-.14-0.43-.14-0.43-.15-0.42-.15-0.42-.15-0.42-.16-0.42-.16-0.83-.34-0.41-.17-0.81-.36-0.4-.19-0.4-.19-0.4-.19-0.4-.2-0.39-.2-0.39-.2-0.39-.21-0.39-.21-0.77-.44-0.38-.22-0.38-.23L125,228.3l-0.37-.24-0.37-.24-0.37-.24-0.37-.25-0.36-.24-0.36-.25-0.36-.25-0.71-.52-0.35-.26-0.7-.53-0.34-.27-0.16-.13-2.38,2.93L118,228l0.37,0.29,0.38,0.29,0.37,0.29,0.38,0.29,0.38,0.28,0.77,0.55,0.39,0.27,0.79,0.52,0.8,0.52,0.4,0.25,0.81,0.49,0.83,0.48,0.42,0.23,0.42,0.23,0.42,0.23,0.85,0.44,0.43,0.21,0.43,0.21,0.43,0.21,0.44,0.2,0.44,0.2,0.44,0.19,0.89,0.38,0.45,0.18,0.46,0.18,0.45,0.17,0.46,0.17,0.46,0.16,0.46,0.16,0.46,0.15,0.47,0.15,0.47,0.14,0.47,0.14,0.19,0.05,1-3.62h0Zm-23.68-16-0.16-.19-0.55-.68L111.5,216,111,215.3l-0.26-.35-0.26-.35-0.25-.36-0.25-.35-0.25-.36-0.24-.36-0.25-.36-0.24-.36-0.24-.36-0.23-.37-0.23-.36L108,211l-0.22-.37-0.22-.37-0.22-.37-0.22-.37-0.21-.38-0.21-.37-0.21-.38-0.21-.38-0.2-.37-0.2-.38-0.2-.38-0.19-.39-0.19-.38-0.19-.39-0.37-.77-0.18-.39-0.18-.39-0.34-.77-0.16-.39-0.16-.39-0.16-.39-0.16-.39-0.13-.33-3.52,1.36,0.14,0.36,0.17,0.42,0.17,0.41,0.18,0.42,0.18,0.41,0.18,0.41,0.18,0.42,0.19,0.41,0.19,0.41,0.19,0.41,0.4,0.82,0.2,0.41,0.41,0.81,0.21,0.4,0.22,0.4,0.21,0.4,0.22,0.4,0.23,0.4,0.23,0.4,0.23,0.39,0.24,0.39,0.24,0.4,0.24,0.39,0.24,0.39,0.25,0.39,0.25,0.39,0.25,0.39,0.25,0.38,0.26,0.38,0.27,0.38,0.27,0.38,0.27,0.38,0.27,0.38,0.27,0.37,0.28,0.38,0.28,0.37,0.28,0.37,0.29,0.37,0.29,0.36,0.29,0.37,0.16,0.19,2.93-2.38h0ZM100.31,191a45.3,45.3,0,0,1,0-18l-3.68-.81a49,49,0,0,0-.07,19.48l3.71-.68h0Zm3.63-28.23a77,77,0,0,1,10.16-15.3l-2.91-2.4a80,80,0,0,0-10.65,16.05Zm17.58-23.68,0,0,0.32-.34,0.65-.68,1-1,0.34-.34,1-1,0.34-.35,0.69-.7,1-1.05,0.71-.72,1.07-1.07,0.37-.36,0.36-.36,0.37-.36,0.37-.37,0.37-.37,0.38-.36,0.37-.37,0.38-.37,0.38-.37,0.38-.37,0.38-.38,0.38-.37,0.39-.38,0.39-.37,0.39-.38,0.4-.38,0,0-2.63-2.7,0,0-0.39.38-0.39.38-0.77.76-0.38.38-0.39.38-0.38.38-0.38.37-0.37.37-0.38.37-0.37.37-0.37.37-0.37.37-0.37.37L126,129l-0.37.36-0.36.36-0.36.36-0.36.36-0.36.36-0.36.36-0.35.36-0.35.35-0.35.35-0.69.71-0.34.35-0.68.7-0.34.35-0.34.35-0.33.35-0.33.34-0.33.35-0.33.35-0.32.34,0,0,2.75,2.58h0Zm0,0" transform="translate(5 125)" fill="#fff"/></svg>