<svg id="Layer_2" data-name="Layer 2" xmlns="http://www.w3.org/2000/svg" xmlns:xlink="http://www.w3.org/1999/xlink" viewBox="0 0 411 411"><defs><clipPath id="clip-path"><circle cx="205.5" cy="205.5" r="204.8" fill="none"/></clipPath><radialGradient id="radial-gradient" cx="205.51" cy="205.5" r="204.8" gradientUnits="userSpaceOnUse"><stop offset="0" stop-color="#278cce"/><stop offset="1" stop-color="#2280bc"/></radialGradient></defs><title>paper-plane clouds</title><g clip-path="url(#clip-path)"><circle cx="205.51" cy="205.5" r="204.8" fill="url(#radial-gradient)"/><polyline points="355.66 94.99 230.05 288.83 145.65 222.68 226.42 173.48 355.64 94.99 355.65 94.99 355.66 94.99" fill="#f2c500"/><polyline points="355.64 94.99 209.55 162.03 119.81 203.21 55.36 151.52 355.64 94.99" fill="#f2c500"/><polyline points="145.69 222.52 128.25 256.81 163.3 236.52 145.69 222.52" fill="#db8907"/><polyline points="118.67 202.29 118.67 202.29 128.25 256.81 146.77 223.37 146.77 223.37 146.77 223.37 146.77 223.37 146.77 223.37 355.64 94.99" fill="#f59d00"/><polyline points="355.64 94.99 209.55 162.03 209.54 162.03 199.24 166.76" fill="#f59d00"/><circle cx="332.73" cy="364.81" r="45" fill="#87b8d7"/><circle cx="415.23" cy="332.91" r="76.5" fill="#87b8d7"/><circle cx="25" cy="349.12" r="60.29" fill="#87b8d7"/><circle cx="99.83" cy="354.34" r="38.13" fill="#87b8d7"/><circle cx="236.41" cy="378.71" r="58.5" fill="#ecf0f1"/><circle cx="149.68" cy="377.71" r="58.5" fill="#ecf0f1"/><circle cx="96.95" cy="378.46" r="20.25" fill="#ecf0f1"/><circle cx="283.72" cy="420.01" r="53" fill="#ecf0f1"/></g></svg>